<svg xmlns="http://www.w3.org/2000/svg" xmlns:xlink="http://www.w3.org/1999/xlink" width="140" zoomAndPan="magnify" viewBox="0 0 104.88 104.999996" height="140" preserveAspectRatio="xMidYMid meet" version="1.0"><defs><g/><clipPath id="2c1c3b8b2f"><path d="M 0 0.972656 L 104 0.972656 L 104 104.9375 L 0 104.9375 Z M 0 0.972656 " clip-rule="nonzero"/></clipPath></defs><g clip-path="url(#2c1c3b8b2f)"><path fill="#ffde59" d="M 0 87.601562 C 0 97.171875 7.757812 104.929688 17.324219 104.929688 L 86.628906 104.929688 C 96.199219 104.929688 103.957031 97.171875 103.957031 87.601562 L 103.957031 18.300781 C 103.957031 8.730469 96.199219 0.972656 86.628906 0.972656 L 17.324219 0.972656 C 7.757812 0.972656 0 8.730469 0 18.300781 Z M 4.332031 18.300781 C 4.332031 11.136719 10.160156 5.304688 17.324219 5.304688 L 86.628906 5.304688 C 93.792969 5.304688 99.625 11.136719 99.625 18.300781 L 99.625 87.601562 C 99.625 94.765625 93.792969 100.597656 86.628906 100.597656 L 17.324219 100.597656 C 10.160156 100.597656 4.332031 94.765625 4.332031 87.601562 Z M 4.332031 18.300781 " fill-opacity="1" fill-rule="nonzero"/></g><g fill="#ffde59" fill-opacity="1"><g transform="translate(44.875843, 80.263946)"><g><path d="M 20.796875 0.703125 L 20.796875 0.328125 C 22.523438 -0.546875 23.75 -1.972656 24.46875 -3.953125 C 25.1875 -5.929688 25.53125 -7.859375 25.5 -9.734375 C 25.457031 -12.097656 24.863281 -13.960938 23.71875 -15.328125 C 22.582031 -16.703125 21.113281 -17.804688 19.3125 -18.640625 C 17.507812 -19.484375 15.585938 -20.296875 13.546875 -21.078125 C 11.503906 -21.859375 9.578125 -22.789062 7.765625 -23.875 C 5.960938 -24.96875 4.484375 -26.410156 3.328125 -28.203125 C 2.171875 -29.992188 1.566406 -32.40625 1.515625 -35.4375 C 1.453125 -38.695312 2.457031 -41.566406 4.53125 -44.046875 C 6.601562 -46.535156 9.265625 -48.234375 12.515625 -49.140625 L 12.515625 -48.6875 C 11.015625 -48.050781 9.929688 -47.0625 9.265625 -45.71875 C 8.597656 -44.375 8.28125 -43.015625 8.3125 -41.640625 C 8.351562 -39.222656 9.003906 -37.265625 10.265625 -35.765625 C 11.535156 -34.273438 13.144531 -33.050781 15.09375 -32.09375 C 17.050781 -31.132812 19.128906 -30.25 21.328125 -29.4375 C 23.523438 -28.632812 25.597656 -27.691406 27.546875 -26.609375 C 29.503906 -25.523438 31.117188 -24.128906 32.390625 -22.421875 C 33.660156 -20.722656 34.320312 -18.453125 34.375 -15.609375 C 34.425781 -12.953125 33.851562 -10.507812 32.65625 -8.28125 C 31.457031 -6.050781 29.828125 -4.15625 27.765625 -2.59375 C 25.710938 -1.039062 23.390625 0.0546875 20.796875 0.703125 Z M 25.546875 -36.59375 C 24.035156 -36.570312 22.707031 -37.09375 21.5625 -38.15625 C 20.425781 -39.226562 19.84375 -40.519531 19.8125 -42.03125 C 19.78125 -43.59375 20.316406 -44.925781 21.421875 -46.03125 C 22.523438 -47.144531 23.832031 -47.710938 25.34375 -47.734375 C 26.914062 -47.765625 28.238281 -47.242188 29.3125 -46.171875 C 30.382812 -45.109375 30.9375 -43.796875 30.96875 -42.234375 C 31 -40.722656 30.492188 -39.410156 29.453125 -38.296875 C 28.421875 -37.191406 27.117188 -36.625 25.546875 -36.59375 Z M 7.375 -3.671875 C 5.800781 -3.640625 4.457031 -4.160156 3.34375 -5.234375 C 2.238281 -6.304688 1.671875 -7.597656 1.640625 -9.109375 C 1.609375 -10.679688 2.125 -12.019531 3.1875 -13.125 C 4.257812 -14.238281 5.582031 -14.8125 7.15625 -14.84375 C 8.664062 -14.875 9.960938 -14.351562 11.046875 -13.28125 C 12.128906 -12.207031 12.6875 -10.882812 12.71875 -9.3125 C 12.75 -7.800781 12.242188 -6.488281 11.203125 -5.375 C 10.160156 -4.269531 8.882812 -3.703125 7.375 -3.671875 Z M 7.375 -3.671875 "/></g></g></g><g fill="#f8f7f0" fill-opacity="1"><g transform="translate(24.09445, 81.492162)"><g><path d="M 4.203125 0 L 4.203125 -52.671875 L 16.59375 -52.671875 L 16.59375 -0.09375 Z M 26.1875 -0.09375 C 26.1875 -0.09375 26.984375 -0.359375 28.578125 -0.890625 C 30.179688 -1.429688 31.914062 -2.734375 33.78125 -4.796875 C 35.707031 -6.796875 36.96875 -8.546875 37.5625 -10.046875 C 38.164062 -11.546875 38.46875 -12.296875 38.46875 -12.296875 L 38.46875 -0.09375 Z M 26.1875 -0.09375 "/></g></g></g></svg>