<svg xmlns="http://www.w3.org/2000/svg" xmlns:xlink="http://www.w3.org/1999/xlink" width="140" zoomAndPan="magnify" viewBox="0 0 104.88 104.999996" height="140" preserveAspectRatio="xMidYMid meet" version="1.0"><defs><g/><clipPath id="09619b6d14"><path d="M 4.328125 5.300781 L 100 5.300781 L 100 101 L 4.328125 101 Z M 4.328125 5.300781 " clip-rule="nonzero"/></clipPath></defs><g fill="#f8f7f0" fill-opacity="1"><g transform="translate(16.122003, 86.800113)"><g><path d="M 5.53125 0 L 5.53125 -69.3125 L 21.828125 -69.3125 L 21.828125 -0.125 Z M 34.46875 -0.125 C 34.46875 -0.125 35.519531 -0.472656 37.625 -1.171875 C 39.726562 -1.878906 42.003906 -3.59375 44.453125 -6.3125 C 46.992188 -8.945312 48.660156 -11.25 49.453125 -13.21875 C 50.242188 -15.1875 50.640625 -16.171875 50.640625 -16.171875 L 50.640625 -0.125 Z M 34.46875 -0.125 "/></g></g></g><g fill="#ffde59" fill-opacity="1"><g transform="translate(46.049198, 81.217895)"><g><path d="M 24.96875 2.046875 L 24.96875 1.609375 C 27.101562 0.640625 28.660156 -1.007812 29.640625 -3.34375 C 30.617188 -5.6875 31.144531 -7.988281 31.21875 -10.25 C 31.300781 -13.09375 30.691406 -15.363281 29.390625 -17.0625 C 28.097656 -18.769531 26.390625 -20.179688 24.265625 -21.296875 C 22.148438 -22.421875 19.890625 -23.507812 17.484375 -24.5625 C 15.078125 -25.625 12.816406 -26.859375 10.703125 -28.265625 C 8.597656 -29.671875 6.90625 -31.484375 5.625 -33.703125 C 4.34375 -35.929688 3.753906 -38.863281 3.859375 -42.5 C 3.972656 -46.4375 5.347656 -49.835938 7.984375 -52.703125 C 10.617188 -55.578125 13.921875 -57.46875 17.890625 -58.375 L 17.875 -57.828125 C 16.019531 -57.148438 14.648438 -56.023438 13.765625 -54.453125 C 12.890625 -52.878906 12.425781 -51.253906 12.375 -49.578125 C 12.289062 -46.671875 12.96875 -44.28125 14.40625 -42.40625 C 15.851562 -40.539062 17.71875 -38.972656 20 -37.703125 C 22.289062 -36.441406 24.726562 -35.265625 27.3125 -34.171875 C 29.90625 -33.078125 32.347656 -31.820312 34.640625 -30.40625 C 36.941406 -28.988281 38.804688 -27.21875 40.234375 -25.09375 C 41.660156 -22.976562 42.328125 -20.210938 42.234375 -16.796875 C 42.140625 -13.597656 41.304688 -10.691406 39.734375 -8.078125 C 38.171875 -5.472656 36.101562 -3.296875 33.53125 -1.546875 C 30.96875 0.203125 28.113281 1.398438 24.96875 2.046875 Z M 32.8125 -42.53125 C 30.988281 -42.582031 29.421875 -43.285156 28.109375 -44.640625 C 26.804688 -45.992188 26.179688 -47.578125 26.234375 -49.390625 C 26.296875 -51.285156 27.015625 -52.863281 28.390625 -54.125 C 29.773438 -55.394531 31.378906 -56.003906 33.203125 -55.953125 C 35.097656 -55.898438 36.664062 -55.203125 37.90625 -53.859375 C 39.144531 -52.515625 39.734375 -50.894531 39.671875 -49 C 39.617188 -47.1875 38.9375 -45.640625 37.625 -44.359375 C 36.3125 -43.085938 34.707031 -42.476562 32.8125 -42.53125 Z M 9.078125 -4 C 7.179688 -4.0625 5.597656 -4.765625 4.328125 -6.109375 C 3.054688 -7.453125 2.445312 -9.035156 2.5 -10.859375 C 2.5625 -12.753906 3.265625 -14.335938 4.609375 -15.609375 C 5.953125 -16.878906 7.570312 -17.484375 9.46875 -17.421875 C 11.289062 -17.367188 12.820312 -16.671875 14.0625 -15.328125 C 15.300781 -13.984375 15.890625 -12.363281 15.828125 -10.46875 C 15.773438 -8.644531 15.09375 -7.097656 13.78125 -5.828125 C 12.46875 -4.554688 10.898438 -3.945312 9.078125 -4 Z M 9.078125 -4 "/></g></g></g><g clip-path="url(#09619b6d14)"><path fill="#ffde59" d="M 4.328125 84.820312 C 4.328125 93.601562 11.449219 100.722656 20.230469 100.722656 L 83.84375 100.722656 C 92.628906 100.722656 99.75 93.601562 99.75 84.820312 L 99.75 21.207031 C 99.75 12.421875 92.628906 5.300781 83.84375 5.300781 L 20.230469 5.300781 C 11.449219 5.300781 4.328125 12.421875 4.328125 21.207031 Z M 8.304688 21.207031 C 8.304688 14.628906 13.65625 9.277344 20.230469 9.277344 L 83.84375 9.277344 C 90.421875 9.277344 95.773438 14.628906 95.773438 21.207031 L 95.773438 84.820312 C 95.773438 91.394531 90.421875 96.746094 83.84375 96.746094 L 20.230469 96.746094 C 13.65625 96.746094 8.304688 91.394531 8.304688 84.820312 Z M 8.304688 21.207031 " fill-opacity="1" fill-rule="nonzero"/></g></svg>